<svg id="peruMapSvg" class="mapa-svg" viewBox="0 0 800 1168" xmlns="http://www.w3.org/2000/svg">
  <path data-region="AMAZONAS" class="mapa-region" d="M196,218 197,218 198,217 199,217 200,216 201,215 201,213 200,212 199,212 198,211 198,209 199,208 201,207 202,205 204,202 205,201 208,198 214,190 219,186 220,185 223,184 223,184 224,191 225,196 225,197 225,202 226,203 226,204 229,210 231,214 231,216 232,222 233,226 234,227 234,228 233,229 233,231 233,233 234,234 234,235 234,236 237,240 237,240 238,242 238,243 239,247 239,249 240,250 240,250 240,251 239,253 238,255 238,266 238,270 238,275 237,277 237,278 235,280 233,285 232,288 231,288 230,289 229,290 228,292 227,293 225,297 225,299 225,303 225,304 225,305 225,306 226,308 227,311 227,320 229,326 233,336 231,338 229,341 229,342 229,343 229,344 230,350 230,351 229,352 229,353 228,355 229,358 235,369 236,372 238,375 239,376 241,376 243,377 251,379 254,381 256,382 258,383 259,384 261,387 261,388 262,390 263,394 263,396 262,398 256,403 255,404 254,405 254,406 253,408 253,410 252,411 251,412 250,413 245,414 244,414 243,414 241,414 238,414 237,414 236,414 235,413 233,412 231,411 230,411 228,412 228,413 228,414 227,416 227,419 226,426 225,431 224,433 224,434 225,435 225,436 226,437 227,438 223,438 222,438 220,437 219,437 217,437 216,437 215,438 212,438 211,439 210,438 210,437 210,436 209,434 209,433 210,431 210,430 210,430 209,429 209,429 209,428 209,428 210,427 210,427 210,424 210,423 209,422 206,416 203,409 202,408 201,406 201,406 200,404 200,404 199,403 196,402 194,401 190,399 189,397 186,391 184,388 183,386 182,384 181,383 178,382 176,380 176,380 175,380 174,380 174,380 173,380 172,379 172,379 171,378 171,378 171,377 171,377 170,376 166,372 166,371 165,369 164,368 164,367 164,367 162,365 162,364 162,363 162,362 162,360 162,360 163,360 163,359 163,359 164,359 164,359 164,359 165,358 165,357 165,357 164,357 164,357 164,356 163,356 163,356 163,355 164,355 165,355 165,355 165,354 166,352 167,352 170,347 170,347 170,346 171,345 172,344 172,344 172,343 172,343 172,342 172,341 172,335 171,329 171,327 170,323 170,322 170,321 170,320 170,318 172,314 172,313 173,313 174,312 174,311 174,310 174,309 174,305 173,305 173,303 171,301 170,298 169,293 167,288 166,286 168,285 168,284 168,283 168,281 168,280 169,279 170,277 170,276 169,276 168,274 168,272 168,270 168,268 169,267 170,266 170,263 174,255 175,253 175,249 175,248 176,247 176,247 177,247 178,247 179,246 179,246 179,246 180,241 180,240 181,238 181,238 182,238 183,237 184,236 185,235 184,231 184,230 184,230 184,229 185,229 185,229 185,228 185,227 185,225 185,224 186,222 187,220 187,220 188,217 188,214 188,214 188,212 188,212 188,211 190,210 191,211 194,211 194,212 195,213 196,217 196,218Z"/>
  <path data-region="ANCASH" class="mapa-region" d="M218,667 216,664 216,664 215,662 214,661 213,660 213,659 212,657 211,656 210,655 210,654 210,653 210,653 209,652 207,650 207,649 207,647 206,646 205,646 205,645 205,644 205,643 204,642 204,641 203,640 200,637 200,636 199,635 199,635 200,635 200,634 200,633 199,633 200,632 199,631 199,631 198,630 198,628 198,627 197,627 197,626 196,626 196,625 196,625 196,625 196,625 196,624 196,623 196,623 196,622 196,621 195,620 195,619 196,618 196,617 196,615 194,613 192,611 191,609 190,608 190,607 189,606 188,605 187,604 187,602 187,600 186,599 186,598 186,597 185,597 185,595 186,594 186,593 186,592 185,592 184,591 183,590 184,589 184,588 184,588 184,587 183,587 183,586 182,586 181,585 181,585 180,586 179,584 179,583 178,583 178,582 177,582 178,581 179,581 179,581 180,579 180,578 179,577 178,576 177,576 176,576 175,576 175,577 175,577 175,578 176,579 176,580 175,580 174,578 173,577 172,576 172,575 172,575 172,575 173,575 175,575 175,575 175,574 175,573 175,571 174,570 173,570 172,570 171,570 171,569 170,568 170,567 171,566 171,566 170,565 169,564 169,564 169,564 170,563 170,562 171,562 171,562 172,561 172,559 173,554 174,551 177,549 186,546 189,544 191,543 192,543 194,543 194,543 195,543 197,539 196,538 196,537 196,536 196,536 196,535 198,532 200,528 201,528 201,527 201,527 201,526 201,525 202,523 203,523 203,522 203,521 204,520 213,512 214,511 215,510 216,507 216,506 217,505 218,505 219,505 220,506 221,506 223,506 224,506 225,506 227,505 228,504 231,503 232,503 233,502 233,503 233,504 234,505 235,507 234,507 234,508 234,509 235,509 236,511 240,515 241,516 242,516 242,516 243,517 247,523 252,529 253,531 253,533 253,535 254,536 254,537 254,539 255,540 255,541 255,544 255,545 256,545 258,546 258,547 260,549 261,550 261,551 260,552 260,553 261,554 262,555 265,558 266,559 269,560 269,561 272,563 274,565 275,566 275,566 279,567 279,568 279,568 280,569 280,569 280,569 281,570 283,571 286,572 288,573 289,574 290,576 290,578 290,578 289,579 288,580 283,584 283,585 276,600 276,603 275,605 271,611 270,613 269,614 269,614 269,615 269,616 271,618 273,622 274,625 274,629 274,631 274,632 275,633 276,633 276,634 277,634 278,634 279,635 279,635 280,636 280,636 280,637 278,639 278,640 278,643 278,646 267,651 264,653 264,653 264,654 263,657 263,658 263,659 261,661 258,664 257,665 250,669 248,673 246,675 243,676 242,676 238,676 237,676 236,675 236,675 236,674 236,673 236,673 236,671 236,671 235,670 235,669 236,669 236,667 236,667 236,666 236,665 235,665 233,664 233,664 232,662 231,662 230,662 229,662 228,662 227,662 226,661 226,661 226,660 226,660 227,659 229,658 230,658 230,657 230,656 231,655 231,654 231,653 230,652 230,652 226,651 225,651 224,652 224,652 224,655 224,655 223,658 223,659 223,659 223,660 223,661 223,661 223,662 222,663 222,664 221,664 221,665 220,665 219,665 218,667 218,667Z"/>
  <path data-region="APURIMAC" class="mapa-region" d="M531,846 532,846 533,846 533,846 533,847 533,848 534,848 536,848 539,848 541,849 545,853 549,855 550,855 551,855 551,856 552,857 554,857 557,857 557,858 557,858 558,858 559,858 561,858 562,859 563,860 564,861 564,862 564,863 566,864 568,865 569,865 572,865 572,865 574,867 575,867 575,868 579,871 580,872 580,874 582,876 582,877 583,879 584,881 584,892 582,899 581,900 581,900 581,901 579,902 578,903 578,903 576,905 575,907 574,908 572,911 572,912 569,912 569,913 568,913 566,913 565,914 565,914 565,915 564,915 563,916 562,917 561,917 560,918 559,918 558,919 558,919 558,920 557,921 557,921 558,922 559,924 559,924 559,925 559,927 559,928 553,930 552,930 551,930 550,929 550,929 549,929 547,929 545,929 544,929 544,928 543,928 542,928 541,927 540,927 539,928 537,930 536,932 532,930 531,930 529,928 527,927 526,926 524,925 524,926 523,927 523,927 522,928 521,928 520,928 519,928 519,928 518,929 517,929 517,929 516,930 514,930 512,931 510,931 509,931 508,931 507,931 506,931 505,930 504,930 504,930 503,930 503,931 503,932 502,932 502,933 501,934 500,935 500,936 499,936 499,937 498,937 496,937 494,938 493,938 492,937 490,930 490,930 491,929 492,930 493,929 493,929 495,923 495,922 494,920 492,917 492,916 492,912 493,908 493,905 492,902 492,901 492,900 492,899 490,896 489,894 488,893 488,892 487,889 486,885 479,871 479,870 482,869 482,869 483,868 483,867 481,866 480,863 479,863 479,863 478,862 478,862 477,862 476,862 476,861 475,859 475,858 474,853 474,851 474,849 473,847 473,847 472,845 473,844 473,843 474,841 475,840 474,838 474,838 474,837 474,836 475,835 475,834 476,834 476,833 477,834 478,834 478,835 479,836 481,837 491,844 492,845 495,848 497,849 503,850 503,850 505,850 506,850 507,850 507,850 510,851 510,851 511,851 511,850 512,848 512,847 514,848 515,848 515,849 516,848 516,848 517,848 518,848 519,849 520,850 521,849 523,848 523,848 524,847 524,847 525,848 525,848 525,848 526,848 527,846 528,846 531,846Z"/>
  <path data-region="AREQUIPA" class="mapa-region" d="M622,1101 621,1099 620,1099 619,1098 616,1098 615,1097 614,1097 613,1096 612,1095 612,1095 601,1092 599,1091 597,1090 594,1086 592,1085 589,1083 588,1082 586,1082 582,1081 582,1081 581,1081 582,1079 581,1078 581,1078 578,1076 577,1076 577,1074 575,1074 572,1073 571,1072 570,1071 570,1070 570,1068 566,1064 565,1063 564,1063 564,1063 563,1063 563,1063 562,1062 561,1061 561,1061 560,1061 559,1060 558,1060 556,1059 552,1058 546,1058 540,1056 533,1051 522,1047 520,1045 517,1043 515,1042 514,1041 512,1041 510,1041 509,1040 508,1040 507,1040 507,1039 506,1037 506,1036 505,1036 503,1035 500,1034 496,1033 488,1030 483,1029 482,1030 482,1029 481,1028 480,1027 480,1027 477,1026 473,1024 471,1023 467,1020 463,1017 461,1015 461,1015 461,1014 461,1013 460,1012 458,1011 453,1008 452,1008 449,1007 448,1007 447,1006 447,1005 446,1005 445,1004 442,1005 440,1004 438,1003 435,1001 435,1001 435,1000 435,999 434,999 434,998 434,997 432,996 429,995 420,991 416,989 410,986 408,984 401,981 400,979 399,979 398,979 397,979 397,979 396,979 395,978 395,978 399,972 399,971 400,970 400,969 402,965 404,964 417,955 417,956 417,957 418,957 418,958 419,958 420,959 425,960 430,961 432,962 433,962 433,962 434,963 433,963 433,964 433,965 434,966 435,969 436,970 436,971 437,972 437,972 438,973 440,974 441,975 441,976 442,977 442,977 442,978 444,980 445,980 445,981 446,981 447,981 449,982 449,982 450,981 452,981 453,980 455,979 455,979 456,979 456,979 457,980 457,982 457,982 457,982 457,982 458,983 458,983 458,984 457,987 457,988 458,988 458,989 458,989 459,989 464,986 465,986 465,985 466,983 469,979 469,979 470,978 471,978 478,978 484,977 487,977 490,977 497,973 499,974 500,974 501,975 506,975 508,975 508,975 508,973 508,971 508,969 508,968 509,968 510,968 511,968 512,968 514,969 515,969 515,969 516,969 516,968 517,967 519,963 520,962 523,959 524,958 525,955 525,952 525,949 526,949 526,948 526,947 525,946 524,945 524,944 524,941 525,940 525,939 526,939 526,938 527,938 528,937 529,937 530,937 532,937 533,937 534,937 535,937 536,937 536,936 536,936 536,934 536,932 537,930 539,928 540,927 541,927 542,928 543,928 544,928 544,929 545,929 547,929 549,929 550,929 550,929 551,930 552,930 553,930 559,928 558,929 558,931 558,931 558,932 559,932 563,937 564,938 568,939 572,938 574,938 576,938 577,937 578,936 579,936 580,936 581,937 581,937 581,938 582,940 582,940 583,941 583,941 584,942 584,942 585,942 587,939 587,939 587,938 587,937 588,936 588,935 588,934 588,933 588,933 587,932 587,931 586,930 586,930 587,929 587,929 587,928 588,928 588,928 589,928 589,928 590,929 591,930 594,934 595,936 596,938 597,939 597,939 598,940 598,940 600,940 601,941 601,941 601,941 601,942 601,942 601,943 600,943 599,944 599,944 598,945 598,946 599,949 599,949 599,950 599,950 598,952 598,952 599,953 600,954 608,956 609,956 610,957 610,957 611,957 613,955 613,955 614,955 616,954 616,954 618,955 619,955 619,954 620,954 620,954 621,953 620,953 620,952 620,951 620,951 621,951 621,951 623,952 624,953 626,952 627,953 628,953 631,956 632,957 633,957 633,957 634,957 636,955 636,955 637,954 637,954 638,954 639,954 639,955 640,955 640,955 641,956 641,957 641,958 641,959 641,960 641,963 641,964 642,964 643,965 644,965 645,966 647,967 648,968 649,970 650,971 651,973 650,977 650,979 651,979 651,980 652,981 652,981 652,982 652,983 651,985 651,986 652,986 654,989 655,990 657,992 658,993 658,994 658,995 658,995 658,996 657,999 656,999 656,1000 656,1001 657,1001 657,1002 657,1002 658,1003 659,1005 660,1007 662,1009 663,1010 662,1012 662,1014 661,1028 660,1032 659,1034 656,1036 655,1037 655,1038 655,1039 655,1039 655,1040 655,1042 655,1043 655,1044 655,1045 654,1045 652,1046 652,1046 651,1046 651,1046 650,1045 649,1045 649,1044 648,1045 647,1045 646,1045 644,1045 643,1045 640,1047 639,1047 638,1048 635,1053 633,1055 633,1055 633,1056 633,1059 633,1060 633,1062 633,1063 633,1063 632,1063 630,1064 628,1065 625,1068 625,1069 624,1070 624,1071 624,1071 624,1073 624,1074 626,1076 627,1079 630,1082 631,1082 631,1083 631,1083 631,1084 630,1085 629,1090 629,1091 629,1091 627,1094 626,1095 626,1097 625,1098 624,1099 622,1101 622,1101Z"/>
  <path data-region="AYACUCHO" class="mapa-region" d="M465,774 467,777 470,780 470,780 470,782 471,783 471,784 472,784 472,785 472,786 472,788 472,788 473,789 474,789 474,790 475,792 478,796 479,797 479,797 479,796 479,796 480,796 483,799 484,800 484,803 485,804 486,805 486,806 486,808 487,811 487,811 488,812 488,813 489,816 489,817 490,817 490,817 491,818 491,818 491,818 490,819 491,824 491,826 491,826 492,827 494,828 495,829 496,831 496,831 498,832 500,834 503,838 505,841 506,842 507,843 507,843 510,845 512,847 512,847 512,848 511,850 511,851 510,851 510,851 507,850 507,850 506,850 505,850 503,850 503,850 497,849 495,848 492,845 491,844 481,837 479,836 478,835 478,834 477,834 476,833 476,834 475,834 475,835 474,836 474,837 474,838 474,838 475,840 474,841 473,843 473,844 472,845 473,847 473,847 474,849 474,851 474,853 475,858 475,859 476,861 476,862 477,862 478,862 478,862 479,863 479,863 480,863 481,866 483,867 483,868 482,869 482,869 479,870 479,871 486,885 487,889 488,892 488,893 489,894 490,896 492,899 492,900 492,901 492,902 493,905 493,908 492,912 492,916 492,917 494,920 495,922 495,923 493,929 493,929 492,930 491,929 490,930 490,930 492,937 493,938 494,938 496,937 498,937 499,937 499,936 500,936 500,935 501,934 502,933 502,932 503,932 503,931 503,930 504,930 504,930 505,930 506,931 507,931 508,931 509,931 510,931 512,931 514,930 516,930 517,929 517,929 518,929 519,928 519,928 520,928 521,928 522,928 523,927 523,927 524,926 524,925 526,926 527,927 529,928 531,930 532,930 536,932 536,934 536,936 536,936 536,937 535,937 534,937 533,937 532,937 530,937 529,937 528,937 527,938 526,938 526,939 525,939 525,940 524,941 524,944 524,945 525,946 526,947 526,948 526,949 525,949 525,952 525,955 524,958 523,959 520,962 519,963 517,967 516,968 516,969 515,969 515,969 514,969 512,968 511,968 510,968 509,968 508,968 508,969 508,971 508,973 508,975 508,975 506,975 501,975 500,974 499,974 497,973 490,977 487,977 484,977 478,978 471,978 470,978 469,979 469,979 466,983 465,985 465,986 464,986 459,989 458,989 458,989 458,988 457,988 457,987 458,984 458,983 458,983 457,982 457,982 457,982 457,982 457,980 456,979 456,979 455,979 455,979 453,980 452,981 450,981 449,982 449,982 447,981 446,981 445,981 445,980 444,980 442,978 442,977 442,977 441,976 441,975 440,974 438,973 437,972 437,972 436,971 436,970 435,969 434,966 433,965 433,964 433,963 434,963 433,962 433,962 432,962 430,961 425,960 420,959 419,958 418,958 418,957 417,957 417,956 417,955 419,950 419,949 419,946 419,944 419,943 419,943 418,941 417,939 416,938 415,936 415,934 415,933 414,932 414,931 413,931 411,929 410,929 410,928 410,927 410,925 410,924 409,924 409,923 408,923 407,922 407,921 406,921 406,920 405,920 404,921 404,921 402,923 402,923 401,924 401,924 397,925 397,924 397,924 396,922 396,920 397,917 397,916 397,916 396,914 396,914 395,913 393,912 392,911 392,910 392,909 393,908 393,907 396,903 396,901 396,900 395,898 395,897 395,896 395,895 396,894 396,893 398,892 400,890 411,888 414,889 415,888 416,888 416,887 417,886 417,878 417,875 415,871 413,866 413,864 413,859 413,857 412,857 412,856 411,856 411,855 410,855 410,854 409,854 409,853 409,852 409,852 408,852 407,851 406,850 405,850 405,849 404,849 406,843 407,842 407,842 410,841 413,840 413,840 414,840 414,841 415,841 416,843 416,844 417,844 418,844 419,844 420,845 421,845 422,845 425,843 425,842 425,842 424,842 423,842 422,841 422,841 420,839 420,839 420,838 421,838 424,836 425,835 426,833 426,833 427,832 427,832 428,833 429,833 430,833 431,833 432,833 433,833 435,832 436,832 437,831 438,830 438,830 438,829 438,828 437,827 437,826 437,825 437,824 437,823 437,823 437,822 438,822 438,821 439,821 440,821 441,821 442,822 444,823 444,824 445,824 445,823 445,821 445,820 443,816 442,814 442,812 442,812 442,810 442,809 442,809 443,809 443,809 444,809 444,809 444,809 444,809 444,808 444,808 444,808 444,807 444,807 444,806 444,806 444,805 444,804 442,801 442,800 442,800 442,799 442,798 442,797 442,796 442,795 441,794 438,790 437,788 437,788 436,786 436,786 435,785 435,785 434,785 433,785 433,785 433,785 432,785 432,785 431,785 431,785 430,785 428,781 430,778 431,772 432,771 432,771 434,768 439,765 440,767 440,767 440,768 441,769 441,769 441,770 441,770 442,770 444,771 444,771 445,772 446,773 447,774 448,775 449,775 449,775 452,776 452,776 453,776 454,776 455,775 457,774 458,773 458,773 459,773 459,773 460,773 461,774 461,774 462,774 463,774 465,774Z"/>
  <path data-region="CAJAMARCA" class="mapa-region" d="M143,313 145,311 147,309 147,308 148,305 149,304 150,304 152,304 153,303 154,302 153,301 152,298 152,296 153,294 154,293 157,290 159,289 165,286 166,286 167,288 169,293 170,298 171,301 173,303 173,305 174,305 174,309 174,310 174,311 174,312 173,313 172,313 172,314 170,318 170,320 170,321 170,322 170,323 171,327 171,329 172,335 172,341 172,342 172,343 172,343 172,344 172,344 171,345 170,346 170,347 170,347 167,352 166,352 165,354 165,355 165,355 164,355 163,355 163,356 163,356 164,356 164,357 164,357 165,357 165,357 165,358 164,359 164,359 164,359 163,359 163,359 163,360 162,360 162,360 162,362 162,363 162,364 162,365 164,367 164,367 164,368 165,369 166,371 166,372 170,376 171,377 171,377 171,378 171,378 172,379 172,379 173,380 174,380 174,380 175,380 176,380 176,380 178,382 181,383 182,384 183,386 184,388 186,391 189,397 190,399 194,401 196,402 199,403 200,404 200,404 201,406 201,406 202,408 203,409 206,416 209,422 210,423 210,424 210,427 210,427 209,428 209,428 209,429 209,429 210,430 210,430 210,431 209,433 209,434 210,436 210,437 210,438 211,439 212,440 212,441 214,443 214,447 215,448 215,449 216,449 217,450 217,451 217,451 217,452 218,452 218,452 219,453 219,453 219,454 219,455 219,456 219,456 219,457 220,457 220,457 220,457 220,460 221,462 222,463 224,464 225,465 225,466 226,468 224,467 224,467 222,468 221,468 220,468 219,468 216,470 215,471 216,472 216,473 216,474 216,476 215,478 215,480 214,480 214,481 211,481 210,481 207,482 206,482 205,482 205,482 204,481 203,480 203,480 202,481 199,483 196,485 196,486 194,486 193,486 192,487 192,486 192,483 191,483 191,482 191,482 189,482 188,481 187,481 187,480 186,479 186,479 185,479 182,479 180,479 178,478 176,476 174,474 173,474 172,474 170,474 169,474 168,474 167,475 166,475 166,475 164,474 162,473 161,473 161,473 159,474 157,475 156,475 154,475 154,475 154,475 152,476 151,476 151,477 150,477 150,478 150,478 150,480 150,480 149,480 149,480 149,481 149,481 149,481 148,482 147,483 147,482 144,480 143,479 143,478 143,477 144,476 144,475 144,475 144,474 144,473 142,470 142,470 141,469 141,468 140,467 137,465 135,463 133,463 132,463 128,461 125,461 124,460 124,460 123,459 123,459 124,457 124,456 125,455 125,454 126,453 126,452 126,452 126,451 126,450 125,448 126,439 126,439 127,438 127,438 127,438 127,437 127,432 128,431 128,430 129,430 131,429 132,428 134,425 135,425 136,424 137,424 137,423 137,423 137,422 137,421 137,420 137,420 136,419 133,419 131,418 130,418 128,418 127,417 126,416 125,414 124,411 124,410 123,409 122,409 122,409 121,409 120,409 120,408 119,408 119,405 120,403 120,403 120,402 119,401 118,400 118,399 118,398 118,398 119,397 120,396 121,395 121,395 122,394 124,393 129,393 131,390 132,388 132,388 131,387 131,387 130,386 129,386 129,385 129,384 129,384 129,383 133,380 133,379 134,379 134,378 134,377 134,377 133,376 132,376 131,375 129,375 129,374 129,374 128,374 127,374 127,374 126,375 125,376 124,375 124,375 124,375 124,374 123,374 122,374 121,375 121,375 120,375 119,374 120,374 122,371 123,371 124,370 124,370 125,369 124,367 124,366 123,365 123,365 123,365 122,364 122,364 122,364 122,362 122,361 121,360 121,359 121,358 122,354 122,350 122,349 122,349 122,348 122,347 122,347 122,346 122,346 122,345 123,343 123,343 124,343 125,343 125,343 126,344 127,344 127,342 127,334 126,333 126,332 125,332 125,332 124,331 125,329 125,328 124,327 123,324 123,323 123,322 125,320 126,319 127,318 128,316 129,315 130,315 130,315 130,314 131,312 131,311 133,310 134,310 135,310 138,311 139,311 139,311 140,311 141,311 142,311 142,312 143,313Z"/>
  <path data-region="CALLAO" class="mapa-region" d="M266,761 265,761 263,761 263,759 264,758 265,757 265,756 265,756 265,756 267,757 267,759 267,760 266,761Z M259,760 261,762 262,763 262,763 262,763 261,763 260,763 259,762 258,761 258,760 258,760 259,760Z"/>
  <path data-region="CUSCO" class="mapa-region" d="M479,797 478,796 475,792 474,790 474,789 473,789 472,788 472,788 472,786 472,785 472,784 471,784 471,783 470,782 470,780 470,780 467,777 465,774 472,774 474,773 481,771 484,771 484,770 485,770 485,769 486,768 487,766 487,765 488,763 488,762 488,759 488,759 488,757 488,757 494,748 494,747 495,742 495,740 495,740 495,739 495,739 495,738 493,737 492,736 491,736 489,735 487,734 486,734 485,734 484,734 483,734 483,734 483,733 483,733 484,732 486,731 492,726 495,721 498,715 499,713 500,713 503,712 505,712 510,712 518,711 520,710 522,709 523,709 523,709 525,705 526,705 527,705 527,705 528,706 528,706 528,707 528,708 529,708 530,709 530,710 530,711 530,712 532,713 534,714 535,714 536,715 537,716 539,716 540,716 541,716 541,715 542,715 543,715 544,714 544,715 545,715 545,716 545,717 546,717 547,717 547,717 549,718 549,719 550,719 553,719 555,719 556,719 556,718 557,718 557,718 558,717 559,716 560,716 562,714 563,713 566,712 570,711 571,711 571,711 572,712 573,712 574,712 575,711 576,711 577,712 578,712 578,716 576,719 568,735 567,738 567,741 566,745 565,746 565,749 565,750 566,755 566,756 566,756 567,756 568,757 573,761 577,763 578,763 579,765 580,766 581,773 582,774 583,774 583,775 585,776 587,776 588,776 589,776 589,777 590,777 591,778 591,779 593,782 595,787 596,790 596,792 596,793 595,796 595,797 595,799 595,800 596,801 597,804 598,806 600,807 602,808 614,812 615,812 616,812 620,812 621,812 622,812 622,812 624,813 625,814 632,816 641,819 642,820 650,825 651,825 653,825 655,825 673,828 681,828 682,827 683,827 683,826 682,825 680,824 680,824 679,823 679,822 679,821 680,821 681,821 683,821 685,821 689,821 691,821 693,822 691,829 691,831 692,835 692,836 692,837 692,838 690,842 689,843 685,847 684,849 682,850 681,852 679,855 674,869 672,871 672,872 670,872 665,873 664,873 663,877 663,880 662,885 662,886 663,887 664,888 664,889 664,891 663,899 662,901 661,903 659,911 659,912 659,912 658,913 655,913 654,913 654,913 653,916 652,918 652,919 653,920 653,921 653,922 653,922 652,923 652,923 650,924 650,925 649,926 648,926 648,926 646,926 645,927 644,928 644,928 645,929 645,929 646,932 647,933 648,933 649,934 649,934 650,934 651,934 652,934 653,935 653,936 652,939 652,940 653,941 653,943 653,944 653,945 652,948 651,949 651,951 652,952 652,952 652,953 652,954 652,955 652,956 652,957 652,958 652,958 653,959 653,961 654,963 654,968 653,969 653,970 653,970 652,970 651,971 650,971 649,970 648,968 647,967 645,966 644,965 643,965 642,964 641,964 641,963 641,960 641,959 641,958 641,957 641,956 640,955 640,955 639,955 639,954 638,954 637,954 637,954 636,955 636,955 634,957 633,957 633,957 632,957 631,956 628,953 627,953 626,952 624,953 623,952 621,951 621,951 620,951 620,951 620,952 620,953 621,953 620,954 620,954 619,954 619,955 618,955 616,954 616,954 614,955 613,955 613,955 611,957 610,957 610,957 609,956 608,956 600,954 599,953 598,952 598,952 599,950 599,950 599,949 599,949 598,946 598,945 599,944 599,944 600,943 601,943 601,942 601,942 601,941 601,941 601,941 600,940 598,940 598,940 597,939 597,939 596,938 595,936 594,934 591,930 590,929 589,928 589,928 588,928 588,928 587,928 587,929 587,929 586,930 586,930 587,931 587,932 588,933 588,933 588,934 588,935 588,936 587,937 587,938 587,939 587,939 585,942 584,942 584,942 583,941 583,941 582,940 582,940 581,938 581,937 581,937 580,936 579,936 578,936 577,937 576,938 574,938 572,938 568,939 564,938 563,937 559,932 558,932 558,931 558,931 558,929 559,928 559,927 559,925 559,924 559,924 558,922 557,921 557,921 558,920 558,919 558,919 559,918 560,918 561,917 562,917 563,916 564,915 565,915 565,914 565,914 566,913 568,913 569,913 569,912 572,912 572,911 574,908 575,907 576,905 578,903 578,903 579,902 581,901 581,900 581,900 582,899 584,892 584,881 583,879 582,877 582,876 580,874 580,872 579,871 575,868 575,867 574,867 572,865 572,865 569,865 568,865 566,864 564,863 564,862 564,861 563,860 562,859 561,858 559,858 558,858 557,858 557,858 557,857 554,857 552,857 551,856 551,855 550,855 549,855 545,853 541,849 539,848 536,848 534,848 533,848 533,847 533,846 533,846 532,846 531,846 528,846 527,846 526,848 525,848 525,848 525,848 524,847 524,847 523,848 523,848 521,849 520,850 519,849 518,848 517,848 516,848 516,848 515,849 515,848 514,848 512,847 512,847 510,845 507,843 507,843 506,842 505,841 503,838 500,834 498,832 496,831 496,831 495,829 494,828 492,827 491,826 491,826 491,824 490,819 491,818 491,818 491,818 490,817 490,817 489,817 489,816 488,813 488,812 487,811 487,811 486,808 486,806 486,805 485,804 484,803 484,800 483,799 480,796 479,796 479,796 479,797 479,797Z"/>
  <path data-region="HUANCAVELICA" class="mapa-region" d="M439,765 434,768 432,771 432,771 431,772 430,778 428,781 430,785 431,785 431,785 432,785 432,785 433,785 433,785 433,785 434,785 435,785 435,785 436,786 436,786 437,788 437,788 438,790 441,794 442,795 442,796 442,797 442,798 442,799 442,800 442,800 442,801 444,804 444,805 444,806 444,806 444,807 444,807 444,808 444,808 444,808 444,809 444,809 444,809 444,809 443,809 443,809 442,809 442,809 442,810 442,812 442,812 442,814 443,816 445,820 445,821 445,823 445,824 444,824 444,823 442,822 441,821 440,821 439,821 438,821 438,822 437,822 437,823 437,823 437,824 437,825 437,826 437,827 438,828 438,829 438,830 438,830 437,831 436,832 435,832 433,833 432,833 431,833 430,833 429,833 428,833 427,832 427,832 426,833 426,833 425,835 424,836 421,838 420,838 420,839 420,839 422,841 422,841 423,842 424,842 425,842 425,842 425,843 422,845 421,845 420,845 419,844 418,844 417,844 416,844 416,843 415,841 414,841 414,840 413,840 413,840 410,841 407,842 407,842 406,843 404,849 405,849 405,850 406,850 407,851 408,852 409,852 409,852 409,853 409,854 410,854 410,855 411,855 411,856 412,856 412,857 413,857 413,859 413,864 413,866 415,871 417,875 417,878 417,886 416,887 416,888 415,888 414,889 411,888 400,890 398,892 396,893 396,894 394,892 393,891 392,891 391,890 390,890 388,890 387,890 384,886 380,884 379,883 378,883 378,882 375,882 375,882 373,881 372,881 371,880 371,880 367,878 366,877 366,877 365,876 365,875 365,874 366,873 366,873 366,872 365,870 365,870 364,869 365,868 365,867 367,864 367,863 367,862 367,861 365,858 366,857 367,856 368,855 369,850 369,850 368,849 368,849 365,849 364,848 361,847 359,847 357,846 356,846 352,847 350,846 350,846 349,845 349,845 349,844 350,843 350,842 351,840 352,840 352,839 352,838 352,837 353,836 353,836 355,835 355,835 355,834 356,833 356,832 356,831 355,827 355,826 355,826 356,825 358,824 359,824 359,823 360,822 360,821 361,820 360,820 360,820 360,819 361,817 361,813 362,812 362,811 365,810 367,807 369,805 370,802 370,800 370,799 371,798 371,797 371,797 372,797 373,796 373,796 374,796 374,795 375,793 375,792 376,791 381,787 381,786 382,786 383,786 384,785 385,785 387,782 388,781 392,780 392,780 391,780 391,779 391,779 391,778 390,777 390,776 390,775 390,775 390,775 390,775 391,774 392,774 393,773 393,773 394,772 396,768 396,767 396,767 396,765 396,764 395,764 395,763 394,762 393,761 393,761 392,760 392,759 392,759 393,758 394,757 395,757 395,756 395,755 396,755 396,755 397,755 397,755 398,757 399,757 399,758 400,758 401,758 402,759 403,759 404,759 405,759 408,758 409,758 410,758 410,758 411,759 412,759 414,759 417,758 417,757 417,757 418,756 418,756 419,755 419,755 419,755 420,755 420,755 423,755 424,756 426,756 428,758 430,758 431,758 431,759 435,763 439,765Z"/>
  <path data-region="HUANUCO" class="mapa-region" d="M420,540 426,541 427,541 427,541 428,542 429,542 429,543 430,543 430,544 430,545 431,547 431,547 431,548 431,549 430,549 429,550 426,552 425,552 425,553 424,553 424,554 424,560 423,563 422,566 421,568 420,568 420,569 420,570 420,571 421,573 421,574 421,576 420,579 418,584 418,587 418,587 418,588 418,589 419,591 420,593 421,594 429,606 415,613 401,615 401,615 394,614 392,614 392,614 379,620 378,620 373,621 369,622 361,621 356,622 355,622 354,623 353,623 351,624 349,626 349,627 348,628 348,631 348,633 348,634 350,646 351,649 351,650 349,651 340,655 338,653 335,652 322,651 322,651 321,651 321,651 320,649 320,648 319,648 318,647 317,646 315,645 312,645 304,645 301,646 300,646 299,647 295,652 294,654 289,656 288,656 288,656 286,655 285,653 285,652 284,651 284,651 282,650 282,650 281,650 280,650 279,650 279,649 278,649 278,646 278,643 278,640 278,639 280,637 280,636 280,636 279,635 279,635 278,634 277,634 276,634 276,633 275,633 274,632 274,631 274,629 274,625 273,622 271,618 269,616 269,615 269,614 269,614 270,613 271,611 275,605 276,603 276,600 283,585 283,584 288,580 289,579 290,578 290,578 290,576 289,574 288,573 286,572 283,571 281,570 280,569 280,569 280,569 279,568 279,568 279,567 275,566 275,566 274,565 272,563 269,561 269,560 266,559 265,558 262,555 261,554 260,553 260,552 261,551 261,550 260,549 258,547 258,546 256,545 255,545 255,544 255,541 255,540 254,539 254,537 254,536 253,535 257,535 263,535 265,535 266,534 267,534 270,533 271,533 271,533 272,533 272,534 273,535 273,538 274,539 274,539 275,539 276,539 277,539 279,540 280,540 281,540 282,538 283,536 288,535 290,536 292,536 298,537 299,538 308,539 310,539 312,539 313,538 313,538 314,536 314,533 314,529 314,527 315,527 315,526 316,525 317,525 318,526 319,528 319,528 319,529 319,530 319,531 320,532 321,533 321,533 321,533 321,534 322,535 322,536 323,536 324,537 324,538 324,539 324,540 325,540 326,543 326,545 326,546 327,547 328,547 328,548 330,548 332,547 333,546 333,544 335,541 336,540 337,539 340,537 338,542 339,545 340,546 342,551 343,552 343,553 344,564 344,564 344,565 345,565 345,565 346,566 346,566 347,566 347,567 348,567 349,570 350,571 350,572 350,573 350,573 350,574 350,575 350,576 350,578 351,579 351,580 351,581 353,582 354,583 354,583 357,589 358,590 359,590 361,590 363,590 364,589 365,589 372,583 373,582 375,582 376,582 379,581 380,580 381,579 383,577 385,575 385,574 386,572 387,571 388,569 388,568 389,566 389,566 390,565 391,563 395,557 397,554 401,551 402,550 405,549 406,548 411,544 412,543 417,541 419,541 420,540Z"/>
  <path data-region="ICA" class="mapa-region" d="M395,978 394,977 393,976 392,976 391,975 390,975 389,974 389,974 388,973 388,973 388,973 389,972 390,972 390,971 389,970 388,969 385,967 383,966 385,966 385,965 386,965 385,964 385,963 385,963 382,960 380,959 377,959 376,958 376,957 375,956 372,951 372,950 371,949 369,948 368,947 368,947 368,945 368,944 365,942 360,939 358,939 357,938 355,937 353,935 350,933 349,933 349,932 348,932 348,932 347,932 346,931 346,930 346,930 345,929 345,929 342,928 341,927 341,925 341,924 341,922 340,921 339,919 338,919 338,918 339,918 339,917 339,916 338,915 337,914 334,912 334,912 332,910 332,909 331,909 329,909 329,908 328,908 328,906 329,906 330,905 330,904 330,904 329,902 329,902 328,900 327,899 326,899 325,898 325,897 325,896 324,896 323,895 321,894 321,896 320,898 318,896 319,894 319,891 318,890 319,889 319,888 320,888 320,887 320,887 320,886 319,885 319,884 320,884 320,882 319,881 318,880 318,880 318,879 318,879 318,878 318,878 317,878 317,878 317,879 316,880 316,879 314,879 313,879 312,879 312,877 312,876 313,874 314,873 313,872 314,872 315,872 316,871 317,871 318,871 318,872 318,873 318,874 318,874 319,875 320,876 321,875 321,874 321,872 322,869 323,867 323,866 323,864 324,862 324,860 325,855 325,850 324,848 323,843 321,841 321,841 324,839 325,837 327,833 328,832 337,825 338,824 338,823 339,821 339,820 340,820 340,820 340,820 341,820 341,820 344,822 345,822 350,822 356,821 356,821 358,820 360,819 360,820 360,820 361,820 360,821 360,822 359,823 359,824 358,824 356,825 355,826 355,826 355,827 356,831 356,832 356,833 355,834 355,835 355,835 353,836 353,836 352,837 352,838 352,839 352,840 351,840 350,842 350,843 349,844 349,845 349,845 350,846 350,846 352,847 356,846 357,846 359,847 361,847 364,848 365,849 368,849 368,849 369,850 369,850 368,855 367,856 366,857 365,858 367,861 367,862 367,863 367,864 365,867 365,868 364,869 365,870 365,870 366,872 366,873 366,873 365,874 365,875 365,876 366,877 366,877 367,878 371,880 371,880 372,881 373,881 375,882 375,882 378,882 378,883 379,883 380,884 384,886 387,890 388,890 390,890 391,890 392,891 393,891 394,892 396,894 395,895 395,896 395,897 395,898 396,900 396,901 396,903 393,907 393,908 392,909 392,910 392,911 393,912 395,913 396,914 396,914 397,916 397,916 397,917 396,920 396,922 397,924 397,924 397,925 401,924 401,924 402,923 402,923 404,921 404,921 405,920 406,920 406,921 407,921 407,922 408,923 409,923 409,924 410,924 410,925 410,927 410,928 410,929 411,929 413,931 414,931 414,932 415,933 415,934 415,936 416,938 417,939 418,941 419,943 419,943 419,944 419,946 419,949 419,950 417,955 404,964 402,965 400,969 400,970 399,971 399,972 395,978 395,978Z M324,902 325,902 325,903 326,903 325,904 325,904 324,903 323,902 323,902 323,901 324,902Z M309,874 309,874 309,875 309,875 308,875 308,875 307,875 307,874 308,874 308,873 309,873 309,874Z"/>
  <path data-region="JUNIN" class="mapa-region" d="M499,713 498,715 495,721 492,726 486,731 484,732 483,733 483,733 483,734 483,734 484,734 485,734 486,734 487,734 489,735 491,736 492,736 493,737 495,738 495,739 495,739 495,740 495,740 495,742 494,747 494,748 488,757 488,757 488,759 488,759 488,762 488,763 487,765 487,766 486,768 485,769 485,770 484,770 484,771 481,771 474,773 472,774 465,774 463,774 462,774 461,774 461,774 460,773 459,773 459,773 458,773 458,773 457,774 455,775 454,776 453,776 452,776 452,776 449,775 449,775 448,775 447,774 446,773 445,772 444,771 444,771 442,770 441,770 441,770 441,769 441,769 440,768 440,767 440,767 439,765 435,763 431,759 431,758 430,758 428,758 426,756 424,756 423,755 420,755 420,755 419,755 419,755 419,755 418,756 418,756 417,757 417,757 417,758 414,759 412,759 411,759 410,758 410,758 409,758 408,758 405,759 404,759 403,759 402,759 401,758 400,758 399,758 399,757 398,757 397,755 397,755 396,755 396,755 395,755 395,756 395,757 394,757 393,758 392,759 392,759 392,760 393,761 393,761 394,762 395,763 395,764 396,764 396,765 396,767 396,767 396,768 394,772 393,773 393,773 392,774 391,774 390,775 390,775 390,775 390,775 390,776 390,777 391,778 391,779 391,779 391,780 392,780 392,780 388,781 387,782 385,785 384,785 383,786 382,786 381,786 381,787 376,791 375,792 375,793 374,795 374,796 373,796 373,796 372,797 371,797 371,797 371,798 370,799 370,800 367,797 365,796 364,796 364,795 364,794 364,792 365,790 365,788 366,783 365,780 364,779 360,770 359,769 359,767 360,765 360,764 359,764 356,761 352,759 350,758 349,758 349,757 344,755 343,755 342,755 341,755 338,757 337,757 336,757 335,756 335,755 332,750 330,748 329,747 328,747 328,746 328,744 327,743 324,741 324,740 324,739 323,737 323,734 323,731 323,730 322,729 322,729 320,729 320,729 319,729 318,729 317,728 317,728 315,727 315,726 314,726 313,724 311,718 311,716 310,715 307,712 306,709 306,703 306,698 310,699 311,699 319,697 320,695 320,694 319,692 319,688 319,687 320,686 320,686 320,686 321,686 321,686 322,687 324,687 326,687 327,687 329,686 333,683 334,682 335,682 335,683 336,684 336,684 336,685 337,685 337,685 352,685 366,680 372,679 378,679 380,678 382,677 392,675 393,674 394,673 395,673 396,672 397,672 398,672 399,672 400,672 402,673 406,675 410,679 411,680 414,681 420,682 431,682 432,688 433,691 433,691 435,694 436,695 437,695 439,695 441,695 443,694 443,693 444,693 446,693 449,693 451,693 452,692 453,692 456,691 457,691 458,691 460,690 461,690 462,690 465,690 467,690 468,690 469,690 469,689 470,688 475,682 477,677 478,676 479,677 481,677 482,678 485,678 486,679 486,679 487,680 488,680 490,683 493,687 495,692 495,692 495,695 494,703 494,704 494,704 495,708 496,710 497,712 499,713Z"/>
  <path data-region="LAMBAYEQUE" class="mapa-region" d="M104,448 104,448 104,446 103,445 96,438 93,435 92,434 89,431 88,429 88,427 87,425 85,423 84,422 77,416 74,414 66,409 55,404 45,399 46,398 48,395 54,387 54,386 55,384 55,383 56,381 64,372 64,372 65,371 85,366 87,364 88,364 88,363 88,361 88,354 87,348 87,347 88,346 88,346 90,348 92,350 96,353 97,354 98,355 98,356 98,357 99,357 100,358 100,359 100,360 100,360 100,361 100,361 99,362 99,363 99,363 99,364 99,364 99,365 100,365 101,366 103,366 103,366 104,366 105,367 106,368 106,369 107,370 107,371 108,371 109,371 110,371 111,371 113,371 113,371 114,371 117,372 117,372 118,372 119,374 120,375 121,375 121,375 122,374 123,374 124,374 124,375 124,375 124,375 125,376 126,375 127,374 127,374 128,374 129,374 129,374 129,375 131,375 132,376 133,376 134,377 134,377 134,378 134,379 133,379 133,380 129,383 129,384 129,384 129,385 129,386 130,386 131,387 131,387 132,388 132,388 131,390 129,393 124,393 122,394 121,395 121,395 120,396 119,397 118,398 118,398 118,399 118,400 119,401 120,402 120,403 120,403 119,405 119,408 120,408 120,409 121,409 122,409 122,409 123,409 124,410 124,411 125,414 126,416 127,417 128,418 130,418 131,418 133,419 136,419 137,420 137,420 137,421 137,422 137,423 137,423 137,424 136,424 135,425 134,425 132,428 131,429 129,430 128,430 128,431 127,432 127,437 127,438 127,438 127,438 126,439 126,439 124,437 118,436 117,436 116,436 116,436 105,446 104,448Z"/>
  <path data-region="LA_LIBERTAD" class="mapa-region" d="M170,562 170,562 169,560 169,559 168,558 168,557 167,556 165,554 162,550 163,550 163,549 163,549 164,548 164,546 164,545 164,544 163,542 163,540 161,537 159,535 156,532 155,531 153,531 152,530 151,529 152,528 152,528 153,528 153,528 154,526 154,525 150,519 150,518 148,516 148,515 146,513 140,507 140,505 136,503 129,497 125,494 123,491 123,488 119,485 119,484 118,483 118,483 119,483 120,482 120,481 119,479 117,476 112,469 111,467 111,466 110,465 110,464 111,463 111,462 111,461 110,459 110,458 109,455 107,453 104,450 104,449 104,448 105,446 116,436 116,436 117,436 118,436 124,437 126,439 125,448 126,450 126,451 126,452 126,452 126,453 125,454 125,455 124,456 124,457 123,459 123,459 124,460 124,460 125,461 128,461 132,463 133,463 135,463 137,465 140,467 141,468 141,469 142,470 142,470 144,473 144,474 144,475 144,475 144,476 143,477 143,478 143,479 144,480 147,482 147,483 148,482 149,481 149,481 149,481 149,480 149,480 150,480 150,480 150,478 150,478 150,477 151,477 151,476 152,476 154,475 154,475 154,475 156,475 157,475 159,474 161,473 161,473 162,473 164,474 166,475 166,475 167,475 168,474 169,474 170,474 172,474 173,474 174,474 176,476 178,478 180,479 182,479 185,479 186,479 186,479 187,480 187,481 188,481 189,482 191,482 191,482 191,483 192,483 192,486 192,487 193,486 194,486 196,486 196,485 199,483 202,481 203,480 203,480 204,481 205,482 205,482 206,482 207,482 210,481 211,481 214,481 214,480 215,480 215,478 216,476 216,474 216,473 216,472 215,471 216,470 219,468 220,468 221,468 222,468 224,467 224,467 226,468 225,466 225,465 224,464 222,463 221,462 220,460 220,457 220,457 220,457 219,457 219,456 219,456 219,455 219,454 219,453 219,453 218,452 218,452 217,452 217,451 217,451 217,450 216,449 215,449 215,448 214,447 214,443 212,441 212,440 211,439 212,438 215,438 216,437 217,437 219,437 220,437 222,438 223,438 227,438 228,439 228,439 229,441 231,446 231,446 235,449 235,449 236,450 236,452 236,452 234,456 234,457 235,459 236,463 238,466 239,467 241,468 241,469 243,471 245,473 245,474 245,475 245,476 244,480 244,482 244,484 244,486 244,488 245,489 246,491 248,495 249,496 249,497 249,499 249,499 249,500 248,501 248,501 248,501 248,501 248,502 249,502 250,504 250,504 251,505 251,506 252,506 253,507 255,506 256,506 257,506 258,506 259,506 266,508 268,509 271,509 272,510 275,512 275,512 279,517 280,518 280,519 281,534 282,535 282,535 283,536 282,538 281,540 280,540 279,540 277,539 276,539 275,539 274,539 274,539 273,538 273,535 272,534 272,533 271,533 271,533 270,533 267,534 266,534 265,535 263,535 257,535 253,535 253,533 253,531 252,529 247,523 243,517 242,516 242,516 241,516 240,515 236,511 235,509 234,509 234,508 234,507 235,507 234,505 233,504 233,503 233,502 232,503 231,503 228,504 227,505 225,506 224,506 223,506 221,506 220,506 219,505 218,505 217,505 216,506 216,507 215,510 214,511 213,512 204,520 203,521 203,522 203,523 202,523 201,525 201,526 201,527 201,527 201,528 200,528 198,532 196,535 196,536 196,536 196,537 196,538 197,539 195,543 194,543 194,543 192,543 191,543 189,544 186,546 177,549 174,551 173,554 172,559 172,561 171,562 171,562 170,562Z"/>
  <path data-region="LIMA" class="mapa-region" d="M321,841 320,839 317,837 313,831 308,825 306,823 306,821 305,820 304,817 305,814 304,812 303,810 303,809 298,806 297,804 294,799 294,798 294,796 294,796 293,795 292,794 290,791 288,790 286,789 287,788 287,788 288,788 289,787 289,786 289,786 289,785 289,784 289,782 293,781 293,781 294,780 294,780 294,780 294,780 293,779 293,779 293,778 294,777 294,777 294,776 294,776 295,776 295,775 295,774 296,773 296,772 296,771 296,771 296,771 295,770 295,770 294,768 293,767 293,767 292,766 292,765 292,765 292,764 291,763 291,762 291,762 291,761 292,761 292,761 294,762 294,762 294,761 293,760 292,759 291,758 290,758 290,758 290,758 289,758 289,756 289,755 290,755 291,754 291,754 292,754 293,753 293,752 293,752 292,750 291,750 291,749 290,748 289,747 288,747 288,747 287,748 285,750 284,751 284,751 283,751 283,752 282,752 281,752 280,753 279,753 278,753 278,753 278,753 278,753 278,752 278,752 278,751 278,751 278,750 278,750 278,749 278,749 278,748 279,748 279,748 278,747 278,747 277,747 277,747 277,746 277,746 277,745 277,745 278,744 278,744 278,743 278,742 279,742 279,742 280,742 280,742 281,742 282,739 283,739 283,739 282,738 280,738 279,738 278,738 277,738 277,738 276,739 276,739 275,739 275,738 274,738 274,737 273,736 273,735 273,735 273,735 272,735 271,734 271,734 270,734 270,732 271,731 271,731 271,730 271,730 271,729 270,728 270,728 269,728 269,727 268,727 268,728 267,728 267,730 266,731 266,731 265,732 265,732 265,733 265,733 265,734 265,734 263,734 261,735 261,736 261,736 261,735 260,733 259,732 259,732 258,731 257,731 256,729 256,729 256,728 256,728 256,727 255,726 254,724 253,724 253,723 252,723 252,723 251,721 250,721 247,720 245,718 235,713 234,711 233,711 233,710 233,708 233,707 233,707 233,706 233,706 234,706 235,706 235,705 236,705 236,704 236,703 235,701 235,700 235,699 234,698 234,697 233,696 234,696 233,694 232,693 232,692 233,692 232,690 232,689 232,689 231,687 231,686 230,685 229,684 229,683 227,681 226,680 226,679 227,679 225,677 226,677 224,675 223,674 222,674 222,673 222,672 220,671 218,667 218,667 219,665 220,665 221,665 221,664 222,664 222,663 223,662 223,661 223,661 223,660 223,659 223,659 223,658 224,655 224,655 224,652 224,652 225,651 226,651 230,652 230,652 231,653 231,654 231,655 230,656 230,657 230,658 229,658 227,659 226,660 226,660 226,661 226,661 227,662 228,662 229,662 230,662 231,662 232,662 233,664 233,664 235,665 236,665 236,666 236,667 236,667 236,669 235,669 235,670 236,671 236,671 236,673 236,673 236,674 236,675 236,675 237,676 238,676 242,676 243,676 246,675 248,673 250,669 257,665 258,664 261,661 263,659 263,658 263,657 264,654 264,653 264,653 267,651 278,646 278,649 279,649 279,650 280,650 281,650 282,650 282,650 284,651 284,651 285,652 285,653 286,655 288,656 288,656 289,656 291,659 292,660 293,665 293,666 295,669 296,671 296,671 297,676 298,678 300,680 301,681 301,687 301,690 301,691 301,692 302,692 305,694 305,695 306,696 306,697 306,698 306,703 306,709 307,712 310,715 311,716 311,718 313,724 314,726 315,726 315,727 317,728 317,728 318,729 319,729 320,729 320,729 322,729 322,729 323,730 323,731 323,734 323,737 324,739 324,740 324,741 327,743 328,744 328,746 328,747 329,747 330,748 332,750 335,755 335,756 336,757 337,757 338,757 341,755 342,755 343,755 344,755 349,757 349,758 350,758 352,759 356,761 359,764 360,764 360,765 359,767 359,769 360,770 364,779 365,780 366,783 365,788 365,790 364,792 364,794 364,795 364,796 365,796 367,797 370,800 370,802 369,805 367,807 365,810 362,811 362,812 361,813 361,817 360,819 358,820 356,821 356,821 350,822 345,822 344,822 341,820 341,820 340,820 340,820 340,820 339,820 339,821 338,823 338,824 337,825 328,832 327,833 325,837 324,839 321,841 321,841Z M286,789 286,787 287,785 287,783 287,780 285,779 283,775 277,772 273,770 273,770 272,770 271,769 271,768 271,768 271,767 271,767 271,766 270,763 268,762 266,761 267,760 267,759 267,757 265,756 265,756 265,752 264,750 263,748 263,748 262,746 262,745 262,743 261,742 261,741 262,741 263,740 263,739 261,736 261,736 261,736 261,735 263,734 265,734 265,734 265,733 265,733 265,732 265,732 266,731 266,731 267,730 267,728 268,728 268,727 269,727 269,728 270,728 270,728 271,729 271,730 271,730 271,731 271,731 270,732 270,734 271,734 271,734 272,735 273,735 273,735 273,735 273,736 274,737 274,738 275,738 275,739 276,739 276,739 277,738 277,738 278,738 279,738 280,738 282,738 283,739 283,739 282,739 281,742 280,742 280,742 279,742 279,742 278,742 278,743 278,744 278,744 277,745 277,745 277,746 277,746 277,747 277,747 278,747 278,747 279,748 279,748 278,748 278,749 278,749 278,750 278,750 278,751 278,751 278,752 278,752 278,753 278,753 278,753 278,753 279,753 280,753 281,752 282,752 283,752 283,751 284,751 284,751 285,750 287,748 288,747 288,747 289,747 290,748 291,749 291,750 292,750 293,752 293,752 293,753 292,754 291,754 291,754 290,755 289,755 289,756 289,758 290,758 290,758 290,758 291,758 292,759 293,760 294,761 294,762 294,762 292,761 292,761 291,761 291,762 291,762 291,763 292,764 292,765 292,765 292,766 293,767 293,767 294,768 295,770 295,770 296,771 296,771 296,771 296,772 296,773 295,774 295,775 295,776 294,776 294,776 294,777 294,777 293,778 293,779 293,779 294,780 294,780 294,780 294,780 293,781 293,781 289,782 289,784 289,785 289,786 289,786 289,787 288,788 287,788 287,788 286,789Z"/>
  <path data-region="LORETO" class="mapa-region" d="M387,0 388,0 391,1 392,2 394,3 396,6 397,7 397,7 398,7 399,7 399,7 402,10 403,11 404,11 406,12 407,12 408,12 409,12 410,9 411,9 412,10 413,11 415,16 414,17 413,18 414,18 415,18 416,19 418,19 418,19 418,19 419,19 419,20 419,20 420,20 421,20 421,20 421,20 422,20 422,19 423,20 425,23 428,26 429,27 433,29 434,30 435,31 435,32 435,32 436,32 437,32 437,33 437,34 437,34 437,34 440,41 440,41 439,42 439,42 439,43 439,44 441,47 442,47 442,47 443,47 444,47 443,48 444,49 444,50 445,51 444,51 444,51 443,51 442,51 441,52 442,53 443,54 444,54 445,57 446,59 448,60 452,61 455,62 457,62 458,60 459,61 460,65 461,66 461,66 462,67 462,67 463,66 463,66 464,66 464,65 464,65 465,65 465,66 464,67 464,68 465,68 467,68 468,68 468,69 469,71 471,73 471,73 472,74 474,75 475,75 475,75 477,74 478,73 478,72 479,73 480,74 481,75 483,75 483,76 484,76 486,77 486,77 486,78 487,79 487,80 487,80 487,80 488,80 488,80 489,81 489,81 489,82 489,83 489,83 490,84 491,84 490,85 489,86 490,87 492,88 493,89 494,90 495,91 495,91 495,92 495,93 496,96 496,97 494,98 493,99 493,101 493,103 494,105 498,107 498,107 498,108 498,108 499,108 499,108 500,108 501,108 502,109 502,109 504,110 505,111 505,110 506,109 507,109 509,109 510,109 510,107 511,107 512,109 513,110 513,110 514,110 514,111 514,113 514,114 516,116 516,117 516,118 515,119 515,120 515,121 516,122 517,123 517,125 518,126 518,127 519,128 517,131 517,133 514,135 514,135 514,136 514,136 514,137 514,138 514,138 515,139 515,139 516,140 516,141 516,142 517,143 520,143 520,144 521,145 522,144 522,143 523,142 527,145 527,145 528,146 529,149 530,150 530,150 531,150 533,150 534,149 535,149 537,148 538,147 540,148 541,149 541,148 542,147 542,147 543,147 543,147 544,148 544,148 544,150 544,150 545,150 546,149 548,146 549,145 550,145 551,145 554,148 555,148 561,149 562,149 562,150 563,151 564,152 565,152 567,152 569,151 571,151 571,151 571,150 571,149 572,149 573,148 574,148 578,149 579,149 582,146 584,144 585,144 587,144 591,144 592,144 593,143 594,142 594,141 597,139 599,135 600,135 600,135 604,132 605,132 606,132 606,134 606,135 607,135 610,134 611,134 612,135 613,136 615,137 618,138 619,138 619,139 619,142 620,143 621,143 621,143 622,140 623,139 624,140 625,142 626,143 626,144 626,145 625,145 625,146 626,147 628,147 632,145 633,145 634,145 635,144 636,144 637,144 638,145 638,145 639,145 640,144 642,143 643,140 645,139 647,139 647,139 649,140 650,140 650,140 651,140 650,138 650,137 651,136 653,136 655,137 657,137 658,137 660,138 664,141 666,143 668,144 669,144 671,144 671,144 671,145 671,147 672,147 674,149 674,149 674,150 674,151 674,152 675,152 677,152 678,152 678,151 678,150 678,150 679,149 680,150 681,150 681,151 683,151 684,151 685,152 686,153 686,153 686,154 687,154 687,155 688,155 689,154 690,154 692,154 693,154 694,155 693,156 693,156 692,157 692,157 692,158 692,158 692,159 693,159 694,158 696,158 697,157 698,158 699,159 700,162 701,163 702,163 703,163 704,162 705,163 705,164 705,165 705,165 706,166 706,165 707,165 707,164 707,164 709,163 709,163 710,166 711,167 711,168 712,168 712,168 712,168 711,171 706,178 701,186 696,194 691,201 686,209 681,217 676,224 671,232 669,235 672,236 680,240 681,241 684,241 686,241 688,241 690,239 692,238 693,238 696,238 698,240 700,242 702,244 703,247 703,249 704,251 705,253 712,256 714,257 715,259 716,260 718,264 718,266 717,267 716,269 714,270 713,271 712,270 711,270 711,269 710,269 710,267 709,266 708,265 707,265 706,266 705,267 704,270 702,271 702,270 701,269 701,268 700,268 700,268 699,268 696,265 695,265 695,263 696,261 696,260 695,259 695,258 694,258 693,260 692,259 690,258 689,258 688,258 687,258 686,258 684,260 683,261 682,260 682,259 682,258 681,258 680,258 679,260 679,261 678,261 676,260 675,259 676,257 676,257 675,256 674,257 673,257 672,259 672,260 670,260 667,259 666,259 663,260 662,261 662,262 662,263 662,264 661,264 660,265 660,266 659,267 659,268 657,270 656,271 656,272 654,273 653,272 652,271 652,272 650,273 647,272 646,273 645,274 644,274 643,274 643,274 642,272 642,272 641,272 640,274 639,275 637,273 636,273 634,273 633,274 633,275 633,275 633,276 632,277 632,277 632,277 631,276 631,277 631,277 630,278 629,278 629,278 628,277 628,276 627,276 624,277 622,277 621,277 620,277 620,278 620,279 619,280 619,280 617,279 616,279 613,281 614,279 613,279 612,281 611,281 610,281 610,281 609,280 608,279 608,280 607,280 606,280 605,280 603,279 603,279 602,280 602,280 602,280 602,281 601,281 596,281 595,282 593,283 590,286 589,286 588,287 587,288 586,288 586,287 585,287 585,287 584,288 583,290 582,291 581,292 578,294 575,296 573,297 572,297 571,297 569,297 568,297 568,298 568,298 567,298 565,299 564,300 564,303 563,304 562,305 561,306 560,306 559,306 559,306 559,306 559,307 559,307 559,307 559,308 558,308 558,309 557,309 556,309 555,309 554,310 552,312 550,313 550,313 549,314 549,315 549,315 549,316 548,316 545,316 543,316 542,315 541,316 540,317 539,318 537,318 536,318 536,318 535,318 535,318 535,319 535,319 534,320 534,320 533,320 531,320 531,321 531,322 532,323 532,324 533,328 533,329 532,330 531,331 531,332 531,334 530,335 528,339 528,341 528,343 529,345 529,347 528,353 527,355 526,357 519,365 517,367 514,375 512,377 511,380 511,383 512,384 515,388 515,389 516,394 516,395 518,398 518,400 518,401 518,402 517,405 515,408 514,409 511,411 509,411 504,411 503,412 500,414 498,415 494,419 489,422 485,424 484,425 483,426 482,428 482,429 479,430 478,431 478,432 478,435 476,441 475,443 475,445 475,445 475,446 480,452 480,455 481,456 481,457 480,459 479,459 478,459 476,459 474,459 473,460 471,461 469,462 468,462 465,461 464,461 464,462 466,465 467,466 466,467 466,468 466,470 465,471 464,472 464,471 464,471 463,471 462,470 462,470 459,468 448,464 445,464 444,463 439,463 436,462 430,459 428,458 427,458 426,459 425,460 425,461 425,462 425,463 425,464 426,466 428,474 428,477 427,481 428,486 428,492 428,493 428,494 427,495 426,496 425,496 421,498 419,499 405,501 400,503 398,504 394,507 393,507 391,508 388,509 380,509 379,508 379,508 378,508 377,509 377,510 376,511 376,512 376,513 375,514 375,514 373,514 372,514 372,514 371,514 369,515 369,516 368,517 368,518 368,520 368,522 369,523 370,525 373,528 374,529 374,530 374,531 373,532 371,532 370,531 369,531 364,527 364,526 363,526 362,526 360,526 359,526 358,527 358,528 357,529 356,530 351,533 349,535 347,537 345,539 338,542 340,537 342,531 342,528 343,525 343,523 344,522 350,515 350,514 351,513 351,512 351,511 351,509 348,502 333,470 332,466 331,462 331,459 331,445 331,443 331,441 330,440 330,439 330,438 330,438 331,434 334,427 336,424 337,423 338,423 340,423 341,422 343,422 344,423 347,423 348,424 350,425 351,426 357,433 358,434 358,434 359,434 360,434 361,434 362,433 362,433 364,430 367,425 367,424 368,424 369,419 369,418 369,416 370,397 370,397 370,396 370,395 370,394 368,392 368,391 364,387 362,386 358,384 354,383 347,382 342,382 337,382 334,382 333,383 331,382 329,382 328,381 327,380 322,375 320,373 319,371 318,371 317,370 316,370 315,370 313,370 303,377 302,378 300,378 299,378 297,378 296,377 294,377 292,376 290,373 289,371 287,364 286,362 284,360 281,358 279,357 278,356 276,355 263,355 261,354 258,353 255,350 254,349 253,348 251,346 247,344 239,341 237,340 235,338 233,336 229,326 227,320 227,311 226,308 225,306 225,305 225,304 225,303 225,299 225,297 227,293 228,292 229,290 230,289 231,288 232,288 233,285 235,280 237,278 237,277 238,275 238,270 238,266 238,255 239,253 240,251 240,250 240,250 239,249 239,247 238,243 238,242 237,240 237,240 234,236 234,235 234,234 233,233 233,231 233,229 234,228 234,227 233,226 232,222 231,216 231,214 229,210 226,204 226,203 225,202 225,197 225,196 224,191 223,184 223,184 224,184 232,181 240,178 248,175 256,173 264,170 272,167 280,164 288,162 294,160 295,159 297,157 301,155 305,152 308,149 312,146 316,143 320,140 324,137 327,135 331,132 334,128 337,124 341,121 344,117 347,113 350,110 353,106 356,102 359,100 362,96 363,95 364,95 365,92 366,89 367,81 369,74 371,67 373,59 374,56 374,56 376,57 377,58 377,59 378,59 379,59 382,59 385,59 386,59 386,59 385,58 384,57 384,57 384,56 384,55 384,54 381,45 381,44 382,43 382,42 382,42 381,41 381,40 382,39 382,39 383,38 384,38 384,37 384,37 384,36 384,36 384,33 383,32 383,31 382,31 382,31 382,31 381,31 381,30 381,30 378,28 378,28 378,27 377,28 376,27 375,27 374,26 373,23 371,21 369,14 369,13 368,12 366,12 365,11 364,10 363,10 363,10 361,10 361,10 360,9 360,8 359,6 360,5 361,5 362,5 363,6 364,6 365,6 366,6 367,6 371,8 373,8 375,7 375,7 377,8 378,8 379,7 380,7 381,6 382,5 383,5 384,4 385,3 385,2 385,1 386,0 387,0Z"/>
  <path data-region="MADRE_DE_DIOS" class="mapa-region" d="M741,689 742,689 742,689 743,690 743,690 743,691 743,691 743,691 744,692 744,692 750,704 757,715 764,727 770,738 777,750 783,762 790,773 797,785 798,788 798,788 798,788 797,789 797,790 797,791 796,792 795,793 793,794 792,795 792,796 791,797 792,797 794,798 795,799 793,802 793,802 788,804 786,804 785,806 785,808 783,807 782,809 782,810 780,812 779,813 779,816 780,822 780,822 740,842 739,843 738,842 695,821 694,821 693,822 691,821 689,821 685,821 683,821 681,821 680,821 679,821 679,822 679,823 680,824 680,824 682,825 683,826 683,827 682,827 681,828 673,828 655,825 653,825 651,825 650,825 642,820 641,819 632,816 625,814 624,813 622,812 622,812 621,812 620,812 616,812 615,812 614,812 602,808 600,807 598,806 597,804 596,801 595,800 595,799 595,797 595,796 596,793 596,792 596,790 595,787 593,782 591,779 591,778 590,777 589,777 589,776 588,776 587,776 585,776 583,775 583,774 582,774 581,773 580,766 579,765 578,763 577,763 573,761 568,757 567,756 566,756 566,756 566,755 565,750 565,749 565,746 566,745 567,741 567,738 568,735 576,719 578,716 578,712 578,712 578,711 578,709 578,707 579,706 584,697 584,696 584,696 584,695 580,690 580,689 580,689 581,688 582,688 584,688 585,688 587,689 589,691 590,691 591,691 600,691 601,691 602,690 630,676 636,674 637,674 639,672 643,669 646,667 650,664 651,663 653,662 659,655 661,652 662,650 662,648 663,639 663,638 664,635 665,633 667,632 675,625 675,625 675,631 675,639 675,647 675,655 675,663 675,671 675,679 675,688 675,693 680,688 682,688 683,690 686,693 688,694 691,696 694,696 697,696 700,696 703,695 718,687 721,687 722,687 723,687 726,687 728,687 729,688 731,689 733,690 741,689Z"/>
  <path data-region="MOQUEGUA" class="mapa-region" d="M641,1132 639,1130 638,1129 635,1128 633,1126 632,1126 630,1125 628,1126 628,1126 628,1125 628,1124 629,1123 630,1122 629,1120 629,1119 628,1112 628,1111 627,1108 627,1106 627,1106 626,1106 626,1106 624,1103 622,1102 622,1101 622,1101 622,1101 624,1099 625,1098 626,1097 626,1095 627,1094 629,1091 629,1091 629,1090 630,1085 631,1084 631,1083 631,1083 631,1082 630,1082 627,1079 626,1076 624,1074 624,1073 624,1071 624,1071 624,1070 625,1069 625,1068 628,1065 630,1064 632,1063 633,1063 633,1063 633,1062 633,1060 633,1059 633,1056 633,1055 633,1055 635,1053 638,1048 639,1047 640,1047 643,1045 644,1045 646,1045 647,1045 648,1045 649,1044 649,1045 650,1045 651,1046 651,1046 652,1046 652,1046 654,1045 655,1045 655,1044 655,1043 655,1042 655,1040 655,1039 655,1039 655,1038 655,1037 656,1036 659,1034 660,1032 661,1028 662,1014 663,1014 665,1014 665,1015 665,1015 669,1017 670,1018 672,1018 673,1018 675,1018 676,1017 677,1016 678,1016 680,1015 684,1018 686,1018 687,1018 688,1018 689,1018 690,1019 690,1020 690,1021 690,1023 690,1025 691,1026 691,1027 694,1028 694,1029 695,1030 695,1031 694,1033 693,1035 693,1036 693,1036 694,1039 695,1043 696,1045 697,1046 700,1047 700,1048 701,1049 702,1050 703,1052 706,1055 707,1056 708,1057 709,1057 713,1057 714,1060 714,1061 711,1063 710,1064 709,1065 708,1065 706,1065 706,1066 705,1066 704,1067 704,1067 704,1069 704,1070 704,1071 704,1071 703,1075 701,1076 700,1076 699,1076 698,1075 698,1075 697,1074 696,1070 695,1069 694,1069 693,1068 692,1068 691,1068 690,1068 688,1069 687,1071 686,1071 686,1072 686,1073 686,1074 685,1076 684,1077 684,1078 685,1080 685,1080 685,1080 685,1081 685,1082 685,1083 685,1084 685,1085 683,1088 678,1093 675,1095 673,1095 672,1096 671,1096 671,1097 670,1098 669,1099 668,1101 666,1105 665,1105 665,1108 664,1109 664,1110 663,1111 663,1112 662,1113 660,1115 659,1116 659,1117 658,1120 657,1120 657,1121 656,1121 655,1122 649,1124 647,1125 644,1127 644,1128 643,1128 643,1129 642,1131 641,1132 641,1132Z"/>
  <path data-region="PASCO" class="mapa-region" d="M429,606 431,608 431,609 433,612 435,619 436,621 435,623 435,625 436,628 439,634 440,635 440,637 439,646 440,647 440,648 442,653 442,654 443,657 444,660 444,660 445,661 445,661 450,663 451,663 452,664 452,664 452,665 452,666 452,667 451,667 448,668 446,670 445,670 442,673 441,674 437,678 434,681 431,682 420,682 414,681 411,680 410,679 406,675 402,673 400,672 399,672 398,672 397,672 396,672 395,673 394,673 393,674 392,675 382,677 380,678 378,679 372,679 366,680 352,685 337,685 337,685 336,685 336,684 336,684 335,683 335,682 334,682 333,683 329,686 327,687 326,687 324,687 322,687 321,686 321,686 320,686 320,686 320,686 319,687 319,688 319,692 320,694 320,695 319,697 311,699 310,699 306,698 306,697 306,696 305,695 305,694 302,692 301,692 301,691 301,690 301,687 301,681 300,680 298,678 297,676 296,671 296,671 295,669 293,666 293,665 292,660 291,659 289,656 294,654 295,652 299,647 300,646 301,646 304,645 312,645 315,645 317,646 318,647 319,648 320,648 320,649 321,651 321,651 322,651 322,651 335,652 338,653 340,655 349,651 351,650 351,649 350,646 348,634 348,633 348,631 348,628 349,627 349,626 351,624 353,623 354,623 355,622 356,622 361,621 369,622 373,621 378,620 379,620 392,614 392,614 394,614 401,615 401,615 415,613 429,606Z"/>
  <path data-region="PIURA" class="mapa-region" d="M52,253 52,254 52,255 53,257 54,257 54,258 53,259 53,260 55,263 57,263 60,262 63,262 62,263 54,274 53,275 54,276 55,277 58,279 59,279 60,279 60,279 61,278 63,277 68,273 69,272 70,271 70,269 71,268 71,268 72,268 73,267 75,267 76,267 76,268 77,268 78,268 79,269 81,269 83,272 84,273 86,274 87,274 89,274 90,274 92,276 93,278 95,279 97,280 102,278 104,277 106,277 108,278 111,281 111,281 112,282 113,282 114,282 116,283 116,283 116,284 114,287 114,288 116,291 117,294 118,297 118,298 119,299 119,300 120,301 121,302 123,302 123,303 123,304 124,305 124,305 125,306 126,306 127,307 127,308 128,310 130,310 133,310 131,311 131,312 130,314 130,315 130,315 129,315 128,316 127,318 126,319 125,320 123,322 123,323 123,324 124,327 125,328 125,329 124,331 125,332 125,332 126,332 126,333 127,334 127,342 127,344 126,344 125,343 125,343 124,343 123,343 123,343 122,345 122,346 122,346 122,347 122,347 122,348 122,349 122,349 122,350 122,354 121,358 121,359 121,360 122,361 122,362 122,364 122,364 122,364 123,365 123,365 123,365 124,366 124,367 125,369 124,370 124,370 123,371 122,371 120,374 119,374 118,372 117,372 117,372 114,371 113,371 113,371 111,371 110,371 109,371 108,371 107,371 107,370 106,369 106,368 105,367 104,366 103,366 103,366 101,366 100,365 99,365 99,364 99,364 99,363 99,363 99,362 100,361 100,361 100,360 100,360 100,359 100,358 99,357 98,357 98,356 98,355 97,354 96,353 92,350 90,348 88,346 88,346 87,347 87,348 88,354 88,361 88,363 88,364 87,364 85,366 65,371 64,372 64,372 56,381 55,383 55,384 54,386 54,387 48,395 46,398 45,399 38,396 35,394 31,390 26,387 20,384 15,379 13,377 12,373 12,371 12,368 12,368 13,367 14,365 14,365 15,365 16,363 16,362 17,362 18,362 19,363 21,364 23,365 25,366 27,363 30,359 30,353 29,348 26,341 24,339 18,333 17,332 15,332 15,332 13,331 12,329 10,327 9,325 9,324 10,324 10,324 11,322 11,322 10,321 10,320 11,320 11,319 10,317 11,317 12,317 13,316 14,317 16,317 17,316 17,313 16,310 14,308 12,307 10,305 9,303 7,300 2,294 0,292 0,291 1,290 2,290 2,288 1,287 2,284 2,283 2,282 1,280 1,279 1,278 1,278 2,277 2,277 3,276 4,274 4,273 3,269 3,268 4,266 5,265 5,264 11,260 12,259 13,257 14,256 16,255 17,255 17,254 17,254 17,254 22,258 23,259 26,260 31,259 33,259 35,260 41,262 42,262 42,262 42,262 43,262 44,260 52,253 52,253Z M31,399 31,399 30,401 31,401 31,402 31,403 31,404 31,405 31,405 30,405 30,404 30,404 30,403 29,402 30,402 30,401 31,399 31,399Z"/>
  <path data-region="PUNO" class="mapa-region" d="M780,822 780,823 780,831 780,833 781,838 780,851 780,853 780,854 779,856 779,856 778,858 777,859 777,860 777,860 777,861 776,862 776,862 774,862 773,862 772,863 773,865 777,868 778,869 778,869 777,870 777,871 777,872 778,875 779,876 779,878 779,881 780,883 780,884 784,886 784,887 785,888 785,890 787,895 787,897 786,898 782,899 779,899 778,901 778,902 777,903 778,905 778,907 779,908 779,909 778,910 774,913 773,914 770,916 770,917 769,917 768,917 768,918 768,921 768,922 766,922 765,922 764,922 763,923 763,931 762,933 761,934 757,935 756,936 755,937 755,938 755,943 755,944 754,946 754,947 754,948 756,950 757,951 760,956 761,957 765,960 766,961 768,963 769,965 769,966 768,967 767,966 765,967 764,969 762,970 761,971 760,972 760,973 761,975 760,976 760,976 758,977 758,977 757,978 757,979 756,981 756,982 752,988 751,990 752,992 753,994 755,1001 758,1007 761,1014 763,1021 765,1025 767,1027 768,1028 769,1029 771,1030 773,1030 773,1029 774,1028 775,1028 776,1028 778,1029 780,1028 781,1029 784,1032 787,1033 788,1034 789,1036 788,1038 781,1041 778,1042 777,1044 776,1045 776,1047 776,1050 776,1053 776,1054 778,1056 777,1057 776,1058 775,1059 771,1061 770,1061 768,1062 767,1062 766,1063 765,1067 764,1068 758,1075 756,1078 756,1079 753,1081 752,1081 752,1082 752,1082 753,1083 753,1083 753,1084 752,1086 750,1086 748,1087 746,1087 744,1089 741,1092 741,1092 740,1092 739,1092 739,1094 738,1097 736,1099 737,1099 736,1099 736,1099 734,1100 733,1100 733,1100 732,1099 732,1099 731,1098 730,1097 730,1096 730,1096 729,1096 729,1096 728,1096 728,1096 727,1096 727,1096 726,1096 726,1096 725,1096 723,1095 723,1094 722,1094 722,1094 721,1094 721,1094 720,1093 718,1091 716,1090 716,1090 716,1089 715,1089 715,1089 715,1089 714,1089 713,1087 709,1080 705,1074 704,1071 704,1071 704,1070 704,1069 704,1067 704,1067 705,1066 706,1066 706,1065 708,1065 709,1065 710,1064 711,1063 714,1061 714,1060 713,1057 709,1057 708,1057 707,1056 706,1055 703,1052 702,1050 701,1049 700,1048 700,1047 697,1046 696,1045 695,1043 694,1039 693,1036 693,1036 693,1035 694,1033 695,1031 695,1030 694,1029 694,1028 691,1027 691,1026 690,1025 690,1023 690,1021 690,1020 690,1019 689,1018 688,1018 687,1018 686,1018 684,1018 680,1015 678,1016 677,1016 676,1017 675,1018 673,1018 672,1018 670,1018 669,1017 665,1015 665,1015 665,1014 663,1014 662,1014 662,1012 663,1010 662,1009 660,1007 659,1005 658,1003 657,1002 657,1002 657,1001 656,1001 656,1000 656,999 657,999 658,996 658,995 658,995 658,994 658,993 657,992 655,990 654,989 652,986 651,986 651,985 652,983 652,982 652,981 652,981 651,980 651,979 650,979 650,977 651,973 650,971 651,971 652,970 653,970 653,970 653,969 654,968 654,963 653,961 653,959 652,958 652,958 652,957 652,956 652,955 652,954 652,953 652,952 652,952 651,951 651,949 652,948 653,945 653,944 653,943 653,941 652,940 652,939 653,936 653,935 652,934 651,934 650,934 649,934 649,934 648,933 647,933 646,932 645,929 645,929 644,928 644,928 645,927 646,926 648,926 648,926 649,926 650,925 650,924 652,923 652,923 653,922 653,922 653,921 653,920 652,919 652,918 653,916 654,913 654,913 655,913 658,913 659,912 659,912 659,911 661,903 662,901 663,899 664,891 664,889 664,888 663,887 662,886 662,885 663,880 663,877 664,873 665,873 670,872 672,872 672,871 674,869 679,855 681,852 682,850 684,849 685,847 689,843 690,842 692,838 692,837 692,836 692,835 691,831 691,829 693,822 694,821 695,821 738,842 739,843 740,842 780,822 780,822Z"/>
  <path data-region="SAN_MARTIN" class="mapa-region" d="M233,336 235,338 237,340 239,341 247,344 251,346 253,348 254,349 255,350 258,353 261,354 263,355 276,355 278,356 279,357 281,358 284,360 286,362 287,364 289,371 290,373 292,376 294,377 296,377 297,378 299,378 300,378 302,378 303,377 313,370 315,370 316,370 317,370 318,371 319,371 320,373 322,375 327,380 328,381 329,382 331,382 333,383 334,382 337,382 342,382 347,382 354,383 358,384 362,386 364,387 368,391 368,392 370,394 370,395 370,396 370,397 370,397 369,416 369,418 369,419 368,424 367,424 367,425 364,430 362,433 362,433 361,434 360,434 359,434 358,434 358,434 357,433 351,426 350,425 348,424 347,423 344,423 343,422 341,422 340,423 338,423 337,423 336,424 334,427 331,434 330,438 330,438 330,439 330,440 331,441 331,443 331,445 331,459 331,462 332,466 333,470 348,502 351,509 351,511 351,512 351,513 350,514 350,515 344,522 343,523 343,525 342,528 342,531 340,537 337,539 336,540 335,541 333,544 333,546 332,547 330,548 328,548 328,547 327,547 326,546 326,545 326,543 325,540 324,540 324,539 324,538 324,537 323,536 322,536 322,535 321,534 321,533 321,533 321,533 320,532 319,531 319,530 319,529 319,528 319,528 318,526 317,525 316,525 315,526 315,527 314,527 314,529 314,533 314,536 313,538 313,538 312,539 310,539 308,539 299,538 298,537 292,536 290,536 288,535 283,536 282,535 282,535 281,534 280,519 280,518 279,517 275,512 275,512 272,510 271,509 268,509 266,508 259,506 258,506 257,506 256,506 255,506 253,507 252,506 251,506 251,505 250,504 250,504 249,502 248,502 248,501 248,501 248,501 248,501 249,500 249,499 249,499 249,497 249,496 248,495 246,491 245,489 244,488 244,486 244,484 244,482 244,480 245,476 245,475 245,474 245,473 243,471 241,469 241,468 239,467 238,466 236,463 235,459 234,457 234,456 236,452 236,452 236,450 235,449 235,449 231,446 231,446 229,441 228,439 228,439 227,438 226,437 225,436 225,435 224,434 224,433 225,431 226,426 227,419 227,416 228,414 228,413 228,412 230,411 231,411 233,412 235,413 236,414 237,414 238,414 241,414 243,414 244,414 245,414 250,413 251,412 252,411 253,410 253,408 254,406 254,405 255,404 256,403 262,398 263,396 263,394 262,390 261,388 261,387 259,384 258,383 256,382 254,381 251,379 243,377 241,376 239,376 238,375 236,372 235,369 229,358 228,355 229,353 229,352 230,351 230,350 229,344 229,343 229,342 229,341 231,338 233,336Z"/>
  <path data-region="TACNA" class="mapa-region" d="M746,1113 738,1121 735,1123 733,1124 730,1123 727,1123 725,1125 724,1128 725,1130 726,1133 727,1136 727,1137 727,1138 729,1141 729,1142 729,1143 729,1144 725,1153 724,1155 723,1156 720,1159 717,1162 716,1163 715,1164 713,1164 711,1164 707,1167 705,1167 702,1168 695,1167 692,1167 691,1168 689,1167 686,1165 682,1162 680,1161 678,1159 675,1158 672,1156 669,1153 669,1153 669,1152 668,1152 668,1152 667,1152 667,1152 663,1148 662,1147 660,1147 659,1146 658,1143 658,1142 657,1142 656,1141 653,1139 652,1138 648,1137 647,1137 644,1134 642,1133 641,1132 641,1132 641,1132 642,1131 643,1129 643,1128 644,1128 644,1127 647,1125 649,1124 655,1122 656,1121 657,1121 657,1120 658,1120 659,1117 659,1116 660,1115 662,1113 663,1112 663,1111 664,1110 664,1109 665,1108 665,1105 666,1105 668,1101 669,1099 670,1098 671,1097 671,1096 672,1096 673,1095 675,1095 678,1093 683,1088 685,1085 685,1084 685,1083 685,1082 685,1081 685,1080 685,1080 685,1080 684,1078 684,1077 685,1076 686,1074 686,1073 686,1072 686,1071 687,1071 688,1069 690,1068 691,1068 692,1068 693,1068 694,1069 695,1069 696,1070 697,1074 698,1075 698,1075 699,1076 700,1076 701,1076 703,1075 704,1071 705,1074 709,1080 713,1087 714,1089 715,1089 715,1089 715,1089 716,1089 716,1090 716,1090 718,1091 720,1093 721,1094 721,1094 722,1094 722,1094 723,1094 723,1095 725,1096 726,1096 726,1096 727,1096 727,1096 728,1096 728,1096 729,1096 729,1096 730,1096 730,1096 730,1097 731,1098 732,1099 732,1099 733,1100 733,1100 734,1100 736,1099 736,1099 737,1099 740,1099 741,1100 743,1102 745,1103 746,1104 746,1106 746,1108 746,1113 746,1113Z"/>
  <path data-region="TUMBES" class="mapa-region" d="M74,242 74,242 73,243 68,246 67,247 66,248 65,249 64,250 63,250 60,248 59,248 57,248 56,248 55,248 54,249 53,250 53,252 52,253 52,253 52,253 44,260 43,262 42,262 42,262 42,262 41,262 35,260 33,259 31,259 26,260 23,259 22,258 17,254 17,254 17,254 18,252 22,247 24,245 26,243 29,242 30,241 30,240 30,238 31,237 32,235 33,233 36,231 46,225 48,223 50,219 51,218 51,218 52,218 52,217 53,217 58,217 59,217 60,216 61,216 62,214 62,214 63,212 63,212 63,211 63,211 64,212 67,212 68,213 68,214 67,215 67,217 68,217 69,218 69,218 69,219 69,219 69,220 69,222 69,223 69,223 70,223 70,223 70,224 70,225 71,226 71,227 71,227 70,228 70,229 70,230 70,230 71,231 71,232 71,232 70,233 70,233 70,235 72,237 72,238 72,238 72,240 72,240 73,241 74,241 74,242 74,242Z"/>
  <path data-region="UCAYALI" class="mapa-region" d="M464,472 462,472 462,474 465,475 473,484 475,485 477,486 479,486 481,488 482,490 481,493 479,494 477,493 476,493 476,494 477,498 477,498 479,500 482,501 484,502 485,504 485,506 488,508 488,510 488,511 488,513 488,515 489,516 491,519 491,520 492,523 492,524 493,525 498,528 499,528 500,530 500,530 501,530 502,531 503,531 504,532 504,533 504,534 504,537 504,538 504,539 507,543 508,544 509,544 513,545 514,546 515,547 516,548 517,551 522,558 523,559 525,560 526,561 528,564 528,565 529,570 528,572 528,573 527,574 524,576 524,578 524,579 523,579 522,580 521,580 520,580 520,581 519,583 517,585 514,589 513,591 538,591 546,592 546,592 546,593 547,593 547,593 548,593 548,593 549,593 552,594 554,595 555,595 558,596 562,595 563,596 565,596 566,598 567,599 568,599 569,598 569,598 570,599 570,600 570,602 570,603 571,604 572,606 573,607 572,608 572,611 572,613 577,616 578,618 578,619 579,620 579,621 579,622 578,623 578,624 578,625 578,626 578,627 577,629 580,629 592,629 603,629 614,629 625,629 628,629 629,628 629,628 630,627 630,627 631,627 632,627 632,628 633,628 633,628 635,627 637,625 640,624 641,623 641,622 642,620 643,620 647,618 651,617 653,616 653,615 654,613 654,613 655,612 657,611 657,610 659,608 660,607 663,605 665,604 667,602 668,601 672,598 674,597 676,594 677,593 678,593 680,592 682,592 682,593 682,593 682,594 681,595 681,596 680,597 680,597 680,597 680,597 680,598 679,598 679,599 680,601 679,601 678,601 678,600 676,601 676,601 677,602 677,604 678,605 678,606 680,607 681,608 681,610 681,611 681,612 680,613 680,613 680,614 679,615 679,615 678,614 678,614 677,615 677,615 676,616 676,616 675,619 675,623 675,625 675,625 667,632 665,633 664,635 663,638 663,639 662,648 662,650 661,652 659,655 653,662 651,663 650,664 646,667 643,669 639,672 637,674 636,674 630,676 602,690 601,691 600,691 591,691 590,691 589,691 587,689 585,688 584,688 582,688 581,688 580,689 580,689 580,690 584,695 584,696 584,696 584,697 579,706 578,707 578,709 578,711 578,712 578,712 577,712 576,711 575,711 574,712 573,712 572,712 571,711 571,711 570,711 566,712 563,713 562,714 560,716 559,716 558,717 557,718 557,718 556,718 556,719 555,719 553,719 550,719 549,719 549,718 547,717 547,717 546,717 545,717 545,716 545,715 544,715 544,714 543,715 542,715 541,715 541,716 540,716 539,716 537,716 536,715 535,714 534,714 532,713 530,712 530,711 530,710 530,709 529,708 528,708 528,707 528,706 528,706 527,705 527,705 526,705 525,705 523,709 523,709 522,709 520,710 518,711 510,712 505,712 503,712 500,713 499,713 497,712 496,710 495,708 494,704 494,704 494,703 495,695 495,692 495,692 493,687 490,683 488,680 487,680 486,679 486,679 485,678 482,678 481,677 479,677 478,676 477,677 475,682 470,688 469,689 469,690 468,690 467,690 465,690 462,690 461,690 460,690 458,691 457,691 456,691 453,692 452,692 451,693 449,693 446,693 444,693 443,693 443,694 441,695 439,695 437,695 436,695 435,694 433,691 433,691 432,688 431,682 434,681 437,678 441,674 442,673 445,670 446,670 448,668 451,667 452,667 452,666 452,665 452,664 452,664 451,663 450,663 445,661 445,661 444,660 444,660 443,657 442,654 442,653 440,648 440,647 439,646 440,637 440,635 439,634 436,628 435,625 435,623 436,621 435,619 433,612 431,609 431,608 429,606 421,594 420,593 419,591 418,589 418,588 418,587 418,587 418,584 420,579 421,576 421,574 421,573 420,571 420,570 420,569 420,568 421,568 422,566 423,563 424,560 424,554 424,553 425,553 425,552 426,552 429,550 430,549 431,549 431,548 431,547 431,547 430,545 430,544 430,543 429,543 429,542 428,542 427,541 427,541 426,541 420,540 419,541 417,541 412,543 411,544 406,548 405,549 402,550 401,551 397,554 395,557 391,563 390,565 389,566 389,566 388,568 388,569 387,571 386,572 385,574 385,575 383,577 381,579 380,580 379,581 376,582 375,582 373,582 372,583 365,589 364,589 363,590 361,590 359,590 358,590 357,589 354,583 354,583 353,582 351,581 351,580 351,579 350,578 350,576 350,575 350,574 350,573 350,573 350,572 350,571 349,570 348,567 347,567 347,566 346,566 346,566 345,565 345,565 344,565 344,564 344,564 343,553 343,552 342,551 340,546 339,545 338,542 345,539 347,537 349,535 351,533 356,530 357,529 358,528 358,527 359,526 360,526 362,526 363,526 364,526 364,527 369,531 370,531 371,532 373,532 374,531 374,530 374,529 373,528 370,525 369,523 368,522 368,520 368,518 368,517 369,516 369,515 371,514 372,514 372,514 373,514 375,514 375,514 376,513 376,512 376,511 377,510 377,509 378,508 379,508 379,508 380,509 388,509 391,508 393,507 394,507 398,504 400,503 405,501 419,499 421,498 425,496 426,496 427,495 428,494 428,493 428,492 428,486 427,481 428,477 428,474 426,466 425,464 425,463 425,462 425,461 425,460 426,459 427,458 428,458 430,459 436,462 439,463 444,463 445,464 448,464 459,468 462,470 462,470 463,471 464,471 464,471 464,472Z"/>
</svg>